<svg width="465" height="465" viewBox="0 0 465 465" fill="none" xmlns="http://www.w3.org/2000/svg" role="img" aria-label="장사메이트">
<rect width="465" height="465" rx="87" fill="#2AAB59"/>
<path d="M183.922 51C228.677 51 267.613 80.3515 287.614 123.604C354.608 143.364 402.922 199.425 402.922 265.5C402.922 348.067 327.482 415 234.422 415C148.879 415 78.2272 358.443 67.3709 285.175C67.1859 284.532 67.0355 283.808 66.9217 283C63.3452 257.601 62.9275 202.643 66.3621 177.93C71.5552 106.814 122.204 51.0001 183.922 51Z" fill="white"/>
<rect x="163.125" y="216" width="28.1963" height="39.9447" rx="14.0981" transform="rotate(4.5999 163.125 216)" fill="#211F20"/>
<rect x="279.816" y="221.766" width="28.1963" height="39.9447" rx="14.0981" transform="rotate(4.5999 279.816 221.766)" fill="#211F20"/>
<rect x="221.99" y="228.998" width="19.1374" height="48.1002" rx="9.56872" transform="rotate(5.51042 221.99 228.998)" fill="#211F20"/>
<path d="M256.066 305.48C262.026 304.219 267.763 308.805 267.438 314.889C267.225 318.877 264.386 322.257 260.471 323.046C233.156 328.555 215.525 327.498 188.987 319.251C185.067 318.032 182.521 314.272 182.74 310.173C183.065 304.089 189.145 300.046 194.97 301.83C218.31 308.976 234.686 310.003 256.066 305.48Z" fill="#211F20"/>
</svg>
